<?xml version="1.0" standalone="no"?><!DOCTYPE svg PUBLIC "-//W3C//DTD SVG 1.1//EN" "http://www.w3.org/Graphics/SVG/1.1/DTD/svg11.dtd"><svg class="icon" width="128px" height="128.00px" viewBox="0 0 1024 1024" version="1.1" xmlns="http://www.w3.org/2000/svg"><path fill="#dbdbdb" d="M582.4 864H170.666667c-6.4 0-10.666667-4.266667-10.666667-10.666667V170.666667c0-6.4 4.266667-10.666667 10.666667-10.666667h309.333333V320c0 40.533333 34.133333 74.666667 74.666667 74.666667h160v38.4c0 17.066667 14.933333 32 32 32s32-14.933333 32-32V298.666667c0-8.533333-4.266667-17.066667-8.533334-23.466667l-170.666666-170.666667c-6.4-6.4-14.933333-8.533333-23.466667-8.533333H170.666667C130.133333 96 96 130.133333 96 170.666667v682.666666c0 40.533333 34.133333 74.666667 74.666667 74.666667h411.733333c17.066667 0 32-14.933333 32-32s-14.933333-32-32-32z m132.266667-550.4v17.066667H554.666667c-6.4 0-10.666667-4.266667-10.666667-10.666667V160h19.2l151.466667 153.6zM866.133333 669.866667l-106.666666-106.666667c-12.8-12.8-32-12.8-44.8 0s-12.8 32 0 44.8l51.2 51.2H512c-17.066667 0-32 14.933333-32 32S494.933333 725.333333 512 725.333333h253.866667l-51.2 51.2c-12.8 12.8-12.8 32 0 44.8 6.4 6.4 14.933333 8.533333 23.466666 8.533334s17.066667-2.133333 23.466667-8.533334l106.666667-106.666666c8.533333-10.666667 8.533333-32-2.133334-44.8z" /></svg>