<svg width="22" height="22" version="1.1" viewBox="0 0 5.8208334 5.8208335" xmlns="http://www.w3.org/2000/svg">
    <defs>
        <filter id="filter941" color-interpolation-filters="sRGB">
            <feFlood flood-color="rgb(0,0,0)" flood-opacity=".498039" result="flood"/>
            <feComposite in="flood" in2="SourceGraphic" operator="in" result="composite1"/>
            <feGaussianBlur in="composite1" result="blur" stdDeviation="0.2"/>
            <feOffset dx="0.1" dy="6" result="offset"/>
            <feComposite in="SourceGraphic" in2="offset" result="composite2"/>
        </filter>
    </defs>
    <g transform="matrix(.26458333 0 0 .26458333 -3.180052e-5 .00018439665)">
        <g stroke-width="1.1521">
            <path d="m8.7776449 9.4820435s-0.2569263 2.2719325-2.6936843 3.1550205c3.4624425 0.379318 7.1818104-1.513296 7.1818104-1.513296z" fill="#ccc"/>
            <path d="m6.5165119 9.1407155s5.8063751 1.1429805 11.612749 6.8578895c0 0-1.851609-5.301769-3.745521-6.7291065-1.89391-1.4273365-3.826376-2.5688847-5.1521336-2.0283897-1.3257586 0.5404966-2.7150946 1.8996067-2.7150945 1.8996067z" fill="#ececec"/>
            <path d="m4.2018764 9.4855405s1.1612749-4.5719253 3.4838245-4.5719253c4.6451001 0 12.193386 7.4293788 12.193386 7.4293788s-6.387012-4.0004349-11.032111-4.0004349c-3.4838244 0-4.6450993 1.1429814-4.6450995 1.1429814z" fill="#f9f9f9"/>
        </g>
        <path d="m3.1615149 8.1364584c-0.6842881 0-1.1612748-1.2844631-1.1612748-2.5689259 0-1.2844633 1.1612748-2.5689266 2.3225497-2.5689266 8.7095612 0 15.677211 4.8167371 15.677211 4.8167371s-6.387013-2.2478105-9.870838-2.2478105c-4.35478 0-4.6450986 0-6.9676481 2.5689259z" fill="#fff" stroke-width="1.22131"/>
        <ellipse cx="16.553991" cy="15.574737" rx="3.4460087" ry="3.4252644" fill="#2cd173" stroke-width="1.72052"/>
        <circle transform="matrix(1.1486698 0 0 1.141755 -1.8247246 -.4098337)" cx="16" cy="14" r="2.0000005" fill="#00ff76" filter="url(#filter941)" stroke-width="1.00157"/>
        <rect x="3" y="14.574736" width="6.0000005" height="2.0000005" fill="#ccc" stroke-width=".905875"/>
    </g>
</svg>
