<svg width="22" height="22" version="1.1" viewBox="0 0 5.8208334 5.8208335" xmlns="http://www.w3.org/2000/svg">
    <g transform="translate(0 .58488789)">
        <g stroke-width=".304826">
            <path d="m2.3223866 2.2449294s-0.067978 0.6011154-0.712704 0.8347658c0.9161046 0.1003609 1.9001873-0.4003929 1.9001873-0.4003929z" fill="#ccc"/>
            <path d="m1.7241285 2.1546197s1.53627 0.3024138 3.07254 1.8144829c0 0-0.4899051-1.4027593-0.9910027-1.780409-0.501097-0.3776494-1.0123953-0.6796841-1.3631684-0.5366781-0.3507737 0.1430064-0.7183689 0.5026042-0.7183689 0.5026042z" fill="#ececec"/>
            <path d="m1.1117145 2.2458547s0.307254-1.2096552 0.921762-1.2096552c1.2290159 0 3.2261668 1.9656897 3.2261668 1.9656897s-1.6898972-1.0584483-2.9189129-1.0584483c-0.9217619 0-1.2290159 0.3024138-1.2290159 0.3024138z" fill="#f9f9f9"/>
        </g>
        <path d="m0.8364522 1.8889101c-0.18105122 0-0.30725395-0.3398475-0.30725395-0.679695 0-0.33984759 0.30725395-0.67969517 0.61450795-0.67969517 2.3044046 0 4.1479289 1.2744284 4.1479289 1.2744284s-1.6898974-0.5947332-2.6116594-0.5947332c-1.1522021 0-1.2290155 0-1.8435235 0.679695z" fill="#fff" stroke-width=".323138"/>
        <rect x=".7937181" y="3.592371" width="2.9104488" height=".52916676" fill="#ccc" stroke-width=".32453"/>
    </g>
</svg>
