<?xml version="1.0" standalone="no"?><!DOCTYPE svg PUBLIC "-//W3C//DTD SVG 1.1//EN" "http://www.w3.org/Graphics/SVG/1.1/DTD/svg11.dtd"><svg class="icon" width="128px" height="128.00px" viewBox="0 0 1024 1024" version="1.1" xmlns="http://www.w3.org/2000/svg"><path fill="#dbdbdb" d="M861.866667 164.266667c-87.466667-87.466667-230.4-89.6-320-2.133334l-68.266667 68.266667c-12.8 12.8-12.8 32 0 44.8s32 12.8 44.8 0l68.266667-68.266667c64-61.866667 166.4-61.866667 230.4 2.133334 64 64 64 168.533333 2.133333 232.533333l-117.333333 119.466667c-34.133333 34.133333-81.066667 51.2-128 49.066666-46.933333-4.266667-91.733333-27.733333-119.466667-66.133333-10.666667-14.933333-29.866667-17.066667-44.8-6.4-14.933333 10.666667-17.066667 29.866667-6.4 44.8 40.533333 53.333333 100.266667 87.466667 166.4 91.733333h17.066667c59.733333 0 119.466667-23.466667 162.133333-68.266666l117.333333-119.466667c83.2-89.6 83.2-234.666667-4.266666-322.133333zM505.6 750.933333l-66.133333 68.266667c-64 61.866667-166.4 61.866667-230.4-2.133333-64-64-64-168.533333-2.133334-232.533334l117.333334-119.466666c34.133333-34.133333 81.066667-51.2 128-49.066667 46.933333 4.266667 91.733333 27.733333 119.466666 66.133333 10.666667 14.933333 29.866667 17.066667 44.8 6.4 14.933333-10.666667 17.066667-29.866667 6.4-44.8-40.533333-53.333333-100.266667-87.466667-166.4-91.733333-66.133333-4.266667-130.133333 19.2-177.066666 66.133333l-117.333334 119.466667c-85.333333 89.6-85.333333 234.666667 2.133334 322.133333 44.8 44.8 102.4 66.133333 162.133333 66.133334 57.6 0 115.2-21.333333 160-64l66.133333-68.266667c12.8-12.8 12.8-32 0-44.8-14.933333-10.666667-34.133333-10.666667-46.933333 2.133333z" /></svg>