<?xml version="1.0" standalone="no"?><!DOCTYPE svg PUBLIC "-//W3C//DTD SVG 1.1//EN" "http://www.w3.org/Graphics/SVG/1.1/DTD/svg11.dtd"><svg t="1614311716912" class="icon" viewBox="0 0 1024 1024" version="1.1" xmlns="http://www.w3.org/2000/svg" p-id="7300" xmlns:xlink="http://www.w3.org/1999/xlink" width="200" height="200"><defs><style type="text/css"></style></defs><path d="M725.333333 384H384V298.666667a128 128 0 0 1 218.453333-90.88 131.413333 131.413333 0 0 1 33.28 58.88 42.666667 42.666667 0 1 0 82.773334-21.333334 217.173333 217.173333 0 0 0-55.893334-97.706666A213.333333 213.333333 0 0 0 298.666667 298.666667v85.333333a128 128 0 0 0-128 128v298.666667a128 128 0 0 0 128 128h426.666666a128 128 0 0 0 128-128v-298.666667a128 128 0 0 0-128-128z m42.666667 426.666667a42.666667 42.666667 0 0 1-42.666667 42.666666H298.666667a42.666667 42.666667 0 0 1-42.666667-42.666666v-298.666667a42.666667 42.666667 0 0 1 42.666667-42.666667h426.666666a42.666667 42.666667 0 0 1 42.666667 42.666667z" p-id="7301" fill="#E9E9E9"></path></svg>