<?xml version="1.0" standalone="no"?><!DOCTYPE svg PUBLIC "-//W3C//DTD SVG 1.1//EN" "http://www.w3.org/Graphics/SVG/1.1/DTD/svg11.dtd"><svg class="icon" width="128px" height="128.00px" viewBox="0 0 1024 1024" version="1.1" xmlns="http://www.w3.org/2000/svg"><path fill="#707070" d="M522.666667 458.666667c-17.066667 0-32 14.933333-32 32v362.666666c0 17.066667 14.933333 32 32 32S554.666667 870.4 554.666667 853.333333V490.666667c0-17.066667-14.933333-32-32-32zM341.333333 554.666667H106.666667c-17.066667 0-32 14.933333-32 32S89.6 618.666667 106.666667 618.666667h74.666666v234.666666c0 17.066667 14.933333 32 32 32s32-14.933333 32-32V618.666667H341.333333c17.066667 0 32-14.933333 32-32S358.4 554.666667 341.333333 554.666667zM693.333333 373.333333c0-17.066667-14.933333-32-32-32h-106.666666V170.666667c0-17.066667-14.933333-32-32-32S490.666667 153.6 490.666667 170.666667v170.666666h-106.666667c-17.066667 0-32 14.933333-32 32S366.933333 405.333333 384 405.333333h277.333333c17.066667 0 32-14.933333 32-32zM917.333333 618.666667H682.666667c-17.066667 0-32 14.933333-32 32S665.6 682.666667 682.666667 682.666667h96v170.666666c0 17.066667 14.933333 32 32 32s32-14.933333 32-32v-170.666666H917.333333c17.066667 0 32-14.933333 32-32S934.4 618.666667 917.333333 618.666667zM213.333333 458.666667c17.066667 0 32-14.933333 32-32V170.666667c0-17.066667-14.933333-32-32-32S181.333333 153.6 181.333333 170.666667v256c0 17.066667 14.933333 32 32 32zM810.666667 522.666667c17.066667 0 32-14.933333 32-32V170.666667c0-17.066667-14.933333-32-32-32s-32 14.933333-32 32v320c0 17.066667 14.933333 32 32 32z" /></svg>