<?xml version="1.0" standalone="no"?><!DOCTYPE svg PUBLIC "-//W3C//DTD SVG 1.1//EN" "http://www.w3.org/Graphics/SVG/1.1/DTD/svg11.dtd"><svg class="icon" width="128px" height="128.00px" viewBox="0 0 1024 1024" version="1.1" xmlns="http://www.w3.org/2000/svg"><path fill="#707070" d="M874.666667 241.066667h-202.666667V170.666667c0-40.533333-34.133333-74.666667-74.666667-74.666667h-170.666666c-40.533333 0-74.666667 34.133333-74.666667 74.666667v70.4H149.333333c-17.066667 0-32 14.933333-32 32s14.933333 32 32 32h53.333334V853.333333c0 40.533333 34.133333 74.666667 74.666666 74.666667h469.333334c40.533333 0 74.666667-34.133333 74.666666-74.666667V305.066667H874.666667c17.066667 0 32-14.933333 32-32s-14.933333-32-32-32zM416 170.666667c0-6.4 4.266667-10.666667 10.666667-10.666667h170.666666c6.4 0 10.666667 4.266667 10.666667 10.666667v70.4h-192V170.666667z m341.333333 682.666666c0 6.4-4.266667 10.666667-10.666666 10.666667H277.333333c-6.4 0-10.666667-4.266667-10.666666-10.666667V309.333333h490.666666V853.333333zM426.666667 736c17.066667 0 32-14.933333 32-32V490.666667c0-17.066667-14.933333-32-32-32s-32 14.933333-32 32v213.333333c0 17.066667 14.933333 32 32 32zM597.333333 736c17.066667 0 32-14.933333 32-32V490.666667c0-17.066667-14.933333-32-32-32s-32 14.933333-32 32v213.333333c0 17.066667 14.933333 32 32 32z" /></svg>