<?xml version="1.0" standalone="no"?><!DOCTYPE svg PUBLIC "-//W3C//DTD SVG 1.1//EN" "http://www.w3.org/Graphics/SVG/1.1/DTD/svg11.dtd"><svg class="icon" width="128px" height="128.00px" viewBox="0 0 1024 1024" version="1.1" xmlns="http://www.w3.org/2000/svg"><path fill="#707070" d="M853.333333 224h-53.333333V170.666667c0-40.533333-34.133333-74.666667-74.666667-74.666667H170.666667C130.133333 96 96 130.133333 96 170.666667v554.666666c0 40.533333 34.133333 74.666667 74.666667 74.666667h53.333333V853.333333c0 40.533333 34.133333 74.666667 74.666667 74.666667h554.666666c40.533333 0 74.666667-34.133333 74.666667-74.666667V298.666667c0-40.533333-34.133333-74.666667-74.666667-74.666667zM160 725.333333V170.666667c0-6.4 4.266667-10.666667 10.666667-10.666667h554.666666c6.4 0 10.666667 4.266667 10.666667 10.666667v554.666666c0 6.4-4.266667 10.666667-10.666667 10.666667H170.666667c-6.4 0-10.666667-4.266667-10.666667-10.666667z m704 128c0 6.4-4.266667 10.666667-10.666667 10.666667H298.666667c-6.4 0-10.666667-4.266667-10.666667-10.666667v-53.333333H725.333333c40.533333 0 74.666667-34.133333 74.666667-74.666667V288H853.333333c6.4 0 10.666667 4.266667 10.666667 10.666667v554.666666zM576 416h-96V320c0-17.066667-14.933333-32-32-32s-32 14.933333-32 32v96H320c-17.066667 0-32 14.933333-32 32s14.933333 32 32 32h96V576c0 17.066667 14.933333 32 32 32s32-14.933333 32-32v-96H576c17.066667 0 32-14.933333 32-32s-14.933333-32-32-32z" /></svg>