<?xml version="1.0" standalone="no"?><!DOCTYPE svg PUBLIC "-//W3C//DTD SVG 1.1//EN" "http://www.w3.org/Graphics/SVG/1.1/DTD/svg11.dtd"><svg class="icon" width="128px" height="128.00px" viewBox="0 0 1024 1024" version="1.1" xmlns="http://www.w3.org/2000/svg"><path fill="#707070" d="M874.666667 864H170.666667c-6.4 0-10.666667-4.266667-10.666667-10.666667V149.333333c0-17.066667-14.933333-32-32-32S96 132.266667 96 149.333333v704c0 40.533333 34.133333 74.666667 74.666667 74.666667h704c17.066667 0 32-14.933333 32-32s-14.933333-32-32-32zM437.333333 469.333333v320c0 17.066667 14.933333 32 32 32s32-14.933333 32-32V469.333333c0-17.066667-14.933333-32-32-32s-32 14.933333-32 32zM298.666667 821.333333c17.066667 0 32-14.933333 32-32V533.333333c0-17.066667-14.933333-32-32-32s-32 14.933333-32 32v256c0 17.066667 14.933333 32 32 32zM640 565.333333c-17.066667 0-32 14.933333-32 32v192c0 17.066667 14.933333 32 32 32s32-14.933333 32-32v-192c0-17.066667-14.933333-32-32-32zM810.666667 352c-17.066667 0-32 14.933333-32 32v405.333333c0 17.066667 14.933333 32 32 32s32-14.933333 32-32V384c0-17.066667-14.933333-32-32-32zM322.133333 407.466667l147.2-147.2 147.2 147.2c6.4 6.4 14.933333 8.533333 23.466667 8.533333h2.133333c8.533333 0 17.066667-6.4 23.466667-12.8l170.666667-234.666667c10.666667-14.933333 6.4-34.133333-6.4-44.8-14.933333-10.666667-34.133333-6.4-44.8 6.4l-149.333334 204.8L490.666667 189.866667c-12.8-12.8-32-12.8-44.8 0l-170.666667 170.666666c-12.8 12.8-12.8 32 0 44.8 12.8 12.8 34.133333 12.8 46.933333 2.133334z" /></svg>