<svg width="22" height="22" version="1.1" viewBox="0 0 5.8208334 5.8208335" xmlns="http://www.w3.org/2000/svg">
    <g transform="matrix(.26458333 0 0 .26458333 0 .58488791)">
        <g stroke-width="1.1521">
            <path d="m8.7775244 8.4847728s-0.2569263 2.2719322-2.6936844 3.1550202c3.4624423 0.379317 7.18181-1.513296 7.18181-1.513296z" fill="#808080"/>
            <path d="m6.5163913 8.1434448s5.8063747 1.142981 11.61275 6.8578882c0 0-1.85161-5.3017676-3.745522-6.7291052-1.89391-1.4273363-3.826376-2.5688846-5.1521324-2.0283896-1.3257589 0.5404967-2.715095 1.8996066-2.7150953 1.8996066z" fill="#666"/>
            <path d="m4.2017558 8.4882698s1.1612749-4.5719252 3.4838246-4.5719252c4.6450996 0 12.193387 7.4293784 12.193387 7.4293784s-6.387013-4.0004344-11.032112-4.0004344c-3.4838245 0-4.6450994 1.1429812-4.6450996 1.1429812z" fill="#4d4d4d"/>
        </g>
        <path d="m3.1613942 7.1391879c-0.6842881 0-1.1612748-1.2844632-1.1612748-2.568926 0-1.2844634 1.1612748-2.5689267 2.3225498-2.5689267 8.7095608 0 15.677212 4.8167373 15.677212 4.8167373s-6.387014-2.2478106-9.870839-2.2478106c-4.3547792 0-4.6450978 0-6.9676478 2.568926z" fill="#333" stroke-width="1.22131"/>
        <rect x="2.9998794" y="13.577465" width="11.000121" height="2.0000005" fill="#666" stroke-width="1.22657"/>
    </g>
</svg>
