<?xml version="1.0" standalone="no"?><!DOCTYPE svg PUBLIC "-//W3C//DTD SVG 1.1//EN" "http://www.w3.org/Graphics/SVG/1.1/DTD/svg11.dtd"><svg t="1614308123835" class="icon" viewBox="0 0 1024 1024" version="1.1" xmlns="http://www.w3.org/2000/svg" p-id="1269" xmlns:xlink="http://www.w3.org/1999/xlink" width="200" height="200"><defs><style type="text/css"></style></defs><path d="M512 74.861714c-119.588571 0-228.864 85.284571-228.864 260.571429v97.28c-49.700571 6.857143-74.569143 39.003429-74.569143 99.858286v315.008c0 69.851429 32.146286 101.558857 96.438857 101.558857h413.988572c64.292571 0 96.438857-31.707429 96.438857-101.558857V532.571429c0-60.854857-24.868571-93.001143-74.569143-99.84v-97.298286c0-175.286857-109.293714-260.571429-228.864-260.571429z m-159.853714 251.136c0-119.570286 71.131429-185.142857 159.853714-185.142857 88.283429 0 159.853714 65.572571 159.853714 185.142857v104.996572H352.146286z m364.708571 169.709715c20.150857 0 29.568 8.594286 29.568 32.146285v324.004572c0 23.990857-9.417143 33.005714-29.568 33.005714H307.145143c-19.712 0-29.568-9.014857-29.568-33.005714V527.853714c0-23.570286 9.856-32.146286 29.568-32.146285z" p-id="1270" fill="#878787"></path></svg>