<?xml version="1.0" standalone="no"?><!DOCTYPE svg PUBLIC "-//W3C//DTD SVG 1.1//EN" "http://www.w3.org/Graphics/SVG/1.1/DTD/svg11.dtd"><svg class="icon" width="128px" height="128.00px" viewBox="0 0 1024 1024" version="1.1" xmlns="http://www.w3.org/2000/svg"><path fill="#707070" d="M874.666667 544c-17.066667 0-32 14.933333-32 32v256c0 6.4-4.266667 10.666667-10.666667 10.666667H192c-6.4 0-10.666667-4.266667-10.666667-10.666667V192c0-6.4 4.266667-10.666667 10.666667-10.666667h256c17.066667 0 32-14.933333 32-32s-14.933333-32-32-32H192C151.466667 117.333333 117.333333 151.466667 117.333333 192v640c0 40.533333 34.133333 74.666667 74.666667 74.666667h640c40.533333 0 74.666667-34.133333 74.666667-74.666667V576c0-17.066667-14.933333-32-32-32zM874.666667 117.333333H640c-17.066667 0-32 14.933333-32 32s14.933333 32 32 32h157.866667L509.866667 467.2c-12.8 12.8-12.8 32 0 44.8 6.4 6.4 14.933333 8.533333 23.466666 8.533333s17.066667-2.133333 23.466667-8.533333l285.866667-285.866667V384c0 17.066667 14.933333 32 32 32s32-14.933333 32-32V149.333333c0-17.066667-14.933333-32-32-32z" /></svg>