<svg t="1583066988697" class="icon" viewBox="0 0 1024 1024" version="1.1" xmlns="http://www.w3.org/2000/svg" p-id="7967" width="128" height="128"><path d="M524.474182 1024l-24.901818 0-6.958545-10.053818C481.652364 998.097455 223.837091 624.407273 187.485091 540.974545c-37.026909-84.968727-43.52-110.917818-43.52-173.428364C143.965091 164.864 308.852364 0 511.511273 0c203.682909 0 368.546909 164.864 368.546909 367.546182 0 62.533818-6.493091 88.459636-43.52 173.428364-36.375273 83.432727-294.144 457.099636-305.082182 472.971636L524.474182 1024zM512.512 46.545455C334.498909 46.545455 190.510545 190.557091 190.510545 367.546182c0 56.064 4.817455 74.891636 39.656727 154.833455 29.090909 66.792727 220.485818 348.020364 281.856 437.620364C573.416727 870.4 764.741818 589.172364 793.832727 522.379636c34.839273-79.965091 39.656727-98.769455 39.656727-154.833455C833.489455 190.557091 689.501091 46.545455 512.512 46.545455z" p-id="7968" fill="#e6e6e6"></path><path d="M512 565.364364c-93.835636 0-170.193455-76.334545-170.193455-170.193455S418.164364 225.000727 512 225.000727s170.193455 76.334545 170.193455 170.193455S605.835636 565.364364 512 565.364364zM512 271.546182c-68.189091 0-123.648 55.458909-123.648 123.648S443.810909 518.818909 512 518.818909s123.648-55.458909 123.648-123.648S580.189091 271.546182 512 271.546182z" p-id="7969" fill="#e6e6e6"></path></svg>
