<?xml version="1.0" encoding="UTF-8" standalone="no"?>
<!-- Created with Inkscape (http://www.inkscape.org/) -->

<svg
   xmlns:dc="http://purl.org/dc/elements/1.1/"
   xmlns:cc="http://creativecommons.org/ns#"
   xmlns:rdf="http://www.w3.org/1999/02/22-rdf-syntax-ns#"
   xmlns:svg="http://www.w3.org/2000/svg"
   xmlns="http://www.w3.org/2000/svg"
   xmlns:sodipodi="http://sodipodi.sourceforge.net/DTD/sodipodi-0.dtd"
   xmlns:inkscape="http://www.inkscape.org/namespaces/inkscape"
   width="32"
   height="32"
   viewBox="0 0 8.4666667 8.4666667"
   version="1.1"
   id="svg8"
   inkscape:version="0.92.4 5da689c313, 2019-01-14"
   sodipodi:docname="share_connectio_btn.svg"
   inkscape:export-filename="/tmp/makepkg/qv2ray-dev-git/src/qv2ray-dev-git/icons/add_connection_btn.png"
   inkscape:export-xdpi="144.00002"
   inkscape:export-ydpi="144.00002">
  <defs
     id="defs2" />
  <sodipodi:namedview
     id="base"
     pagecolor="#ffffff"
     bordercolor="#666666"
     borderopacity="1.0"
     inkscape:pageopacity="0.0"
     inkscape:pageshadow="2"
     inkscape:zoom="32"
     inkscape:cx="17.784325"
     inkscape:cy="12.106514"
     inkscape:document-units="mm"
     inkscape:current-layer="layer1"
     showgrid="true"
     showguides="true"
     inkscape:guide-bbox="true"
     inkscape:window-width="1874"
     inkscape:window-height="1050"
     inkscape:window-x="46"
     inkscape:window-y="30"
     inkscape:window-maximized="1"
     inkscape:snap-object-midpoints="true"
     inkscape:snap-center="true"
     inkscape:snap-smooth-nodes="true"
     inkscape:snap-intersection-paths="true"
     inkscape:object-paths="true"
     inkscape:snap-bbox="true"
     fit-margin-top="20"
     fit-margin-left="20"
     fit-margin-bottom="20"
     fit-margin-right="20"
     guidecolor="#00dcff"
     guideopacity="0.49803922"
     guidehicolor="#1ce300"
     guidehiopacity="0.49803922"
     units="px"
     inkscape:snap-nodes="true"
     inkscape:snap-others="true"
     inkscape:bbox-paths="false"
     inkscape:bbox-nodes="true"
     inkscape:snap-grids="true"
     inkscape:snap-midpoints="true"
     inkscape:snap-bbox-edge-midpoints="true"
     inkscape:snap-bbox-midpoints="false">
    <inkscape:grid
       type="xygrid"
       id="grid822"
       color="#3f4842"
       opacity="0.02745098"
       empcolor="#3f1212"
       empopacity="0.05098039"
       spacingx="0"
       spacingy="0" />
    <sodipodi:guide
       position="1.0583333,1.8520833"
       orientation="1,0"
       id="guide824"
       inkscape:locked="false" />
    <sodipodi:guide
       position="0,7.4083334"
       orientation="0,1"
       id="guide826"
       inkscape:locked="false" />
    <sodipodi:guide
       position="7.4083334,0.79375"
       orientation="1,0"
       id="guide828"
       inkscape:locked="false" />
    <sodipodi:guide
       position="1.3229167,1.0583333"
       orientation="0,1"
       id="guide830"
       inkscape:locked="false" />
    <sodipodi:guide
       position="2.1166665,5.8189079"
       orientation="0,1"
       id="guide842"
       inkscape:locked="false" />
    <sodipodi:guide
       position="4.4368395,3.1750017"
       orientation="1,0"
       id="guide961"
       inkscape:locked="false" />
  </sodipodi:namedview>
  <metadata
     id="metadata5">
    <rdf:RDF>
      <cc:Work
         rdf:about="">
        <dc:format>image/svg+xml</dc:format>
        <dc:type
           rdf:resource="http://purl.org/dc/dcmitype/StillImage" />
        <dc:title />
      </cc:Work>
    </rdf:RDF>
  </metadata>
  <g
     inkscape:label="Layer 1"
     inkscape:groupmode="layer"
     id="layer1"
     transform="translate(-18.854164,-225.46826)"
     style="opacity:1">
    <path
       style="opacity:1;fill:#31363b;fill-opacity:1;stroke:none;stroke-width:0.07559059;stroke-linejoin:round;stroke-miterlimit:4;stroke-dasharray:none;stroke-opacity:1"
       d="M 20,13.292969 V 14.707031 18 l -3.230469,0 h -2.683593 c -1.598676,0.07502 -2.856968,1.391754 -2.859376,2.992188 V 21 28 h 4.566407 V 27 23 L 20,23 v 3.292969 1.414062 l 1,-1 5.5,-5.5 L 27.207031,20.5 26.5,19.792969 l -5.5,-5.5 z M 21,15.707031 25.792969,20.5 21,25.292969 V 22 l -5.207031,0 -0.02344,-2 v -0.002 c -3.54e-4,-0.03325 9.5e-4,-0.06649 0.0039,-0.09961 0.0035,-0.03345 0.0087,-0.06669 0.01562,-0.09961 0.0069,-0.0323 0.01535,-0.06424 0.02539,-0.0957 0.0095,-0.03178 0.02059,-0.06307 0.0332,-0.09375 0.01346,-0.03068 0.02845,-0.06067 0.04492,-0.08984 0.01549,-0.02947 0.03243,-0.05815 0.05078,-0.08594 0.01883,-0.02769 0.03904,-0.05442 0.06055,-0.08008 0.02157,-0.02521 0.04439,-0.04933 0.06836,-0.07227 0.02426,-0.02341 0.04968,-0.04557 0.07617,-0.06641 0.02571,-0.02084 0.05243,-0.0404 0.08008,-0.05859 0.02846,-0.01774 0.05779,-0.03404 0.08789,-0.04883 0.02925,-0.01514 0.05924,-0.02883 0.08984,-0.04102 0.03136,-0.01202 0.0633,-0.02245 0.0957,-0.03125 0.03217,-0.0088 0.06477,-0.01596 0.09766,-0.02148 0.03299,-0.0056 0.06623,-0.0095 0.09961,-0.01172 0.02341,-0.0015 0.04686,-0.0021 0.07031,-0.002 L 21,19 Z M 14.085938,19 h 0.955078 c -0.176442,0.303122 -0.270068,0.647315 -0.271485,0.998047 V 20 l 0.02344,2 v 5 h -2.566407 v -6 -0.0059 c -5.6e-5,-0.06653 0.0032,-0.133016 0.0098,-0.199219 0.0065,-0.0662 0.01626,-0.132039 0.0293,-0.197266 0.01363,-0.06592 0.03058,-0.131104 0.05078,-0.195312 0.01965,-0.0636 0.04247,-0.126177 0.06836,-0.1875 0.02564,-0.06129 0.05432,-0.121256 0.08594,-0.179688 0.0323,-0.05836 0.0675,-0.115076 0.105469,-0.169922 0.0376,-0.05605 0.07802,-0.11015 0.121094,-0.162109 0.0431,-0.05108 0.08873,-0.09997 0.136718,-0.146484 0.04729,-0.04604 0.09683,-0.08972 0.148438,-0.13086 0.05268,-0.0418 0.107439,-0.08091 0.164062,-0.117187 0.05624,-0.03609 0.114262,-0.06933 0.173828,-0.09961 0.05918,-0.02968 0.119806,-0.05641 0.181641,-0.08008 0.06204,-0.02463 0.125266,-0.04614 0.189453,-0.06445 0.06435,-0.01757 0.129533,-0.03191 0.195313,-0.04297 0.06601,-0.01048 0.132495,-0.01766 0.199219,-0.02148 z"
       transform="matrix(0.26458333,0,0,0.26458333,18.854164,225.46826)"
       id="path966"
       inkscape:connector-curvature="0"
       sodipodi:nodetypes="ccccccccccccccccccccccccccccccccccccccccccccccccccccccccccccccccccccc" />
    <path
       inkscape:connector-curvature="0"
       style="fill:#31363b;fill-opacity:1;stroke:none;stroke-width:0.26458332px;stroke-linecap:butt;stroke-linejoin:miter;stroke-opacity:1"
       d="m 21.391477,226.52659 -1.47898,1.47898 0.001,0.10852 v 3.96875 h 1.5865 v -0.26458 H 20.17808 v -3.70417 h 1.322917 v -1.32291 h 2.645833 v 1.85208 h 0.264583 v -2.11667 h -2.910416 z m -0.15503,0.52917 v 0.79375 h -0.79375 z"
       id="path1214-6"
       sodipodi:nodetypes="cccccccccccccccccccc" />
    <rect
       style="opacity:1;fill:#31363b;fill-opacity:1;stroke:none;stroke-width:0.01;stroke-linejoin:round;stroke-miterlimit:4;stroke-dasharray:none;stroke-opacity:1"
       id="rect846"
       width="2.9104166"
       height="0.26458332"
       x="20.706247"
       y="228.64326" />
    <rect
       style="opacity:1;fill:#31363b;fill-opacity:1;stroke:none;stroke-width:0.01;stroke-linejoin:round;stroke-miterlimit:4;stroke-dasharray:none;stroke-opacity:1"
       id="rect846-3"
       width="2.9104166"
       height="0.26458332"
       x="20.706247"
       y="229.43701" />
    <rect
       style="opacity:1;fill:#31363b;fill-opacity:1;stroke:none;stroke-width:0.01;stroke-linejoin:round;stroke-miterlimit:4;stroke-dasharray:none;stroke-opacity:1"
       id="rect846-3-6"
       width="1.0583333"
       height="0.2645874"
       x="20.706247"
       y="230.23076" />
  </g>
</svg>
